<svg id="Layer_1" data-name="Layer 1" xmlns="http://www.w3.org/2000/svg" viewBox="0 0 283.45 141.76"><defs><style>.cls-1{fill:#003057;}.cls-2{fill:#8c827a;}.cls-3{fill:#00a7e1;}</style></defs><path class="cls-1" d="M105.67,173h-12v4.84h11.06v4H93.62v5.85h12.6v4.09H89V169h16.7Z" transform="translate(-57.14 -56.88)"/><path class="cls-1" d="M124.45,175.85c1.11.91,1.67,2.42,1.66,4.53v11.34H121.6V181.48a4.72,4.72,0,0,0-.35-2,2.49,2.49,0,0,0-2.46-1.3,3.06,3.06,0,0,0-3.05,1.9,6.62,6.62,0,0,0-.43,2.57v9.11h-4.4V175h4.26v2.45a7.74,7.74,0,0,1,1.6-1.87,5.59,5.59,0,0,1,3.43-1A6.44,6.44,0,0,1,124.45,175.85Z" transform="translate(-57.14 -56.88)"/><path class="cls-1" d="M142.63,175.23a6.78,6.78,0,0,1,2.9,2.48,8.2,8.2,0,0,1,1.34,3.49,20.7,20.7,0,0,1,.15,3.34H134.76a4,4,0,0,0,1.76,3.55,4.47,4.47,0,0,0,2.42.63,3.73,3.73,0,0,0,2.45-.77,3.66,3.66,0,0,0,.91-1.16h4.49a5.46,5.46,0,0,1-1.63,3,8.19,8.19,0,0,1-6.34,2.46,9.12,9.12,0,0,1-5.92-2.07c-1.72-1.38-2.57-3.63-2.57-6.74,0-2.92.77-5.15,2.31-6.71a8.15,8.15,0,0,1,6-2.33A9.61,9.61,0,0,1,142.63,175.23ZM136,179a4.61,4.61,0,0,0-1.18,2.6h7.59a3.64,3.64,0,0,0-1.17-2.65,3.84,3.84,0,0,0-2.61-.91A3.5,3.5,0,0,0,136,179Z" transform="translate(-57.14 -56.88)"/><path class="cls-1" d="M160.41,174.49h.38V179l-.74-.06h-.53c-1.77,0-3,.58-3.56,1.72a6.71,6.71,0,0,0-.52,3v8.05H151V174.88h4.2v2.94a9.46,9.46,0,0,1,1.78-2.3,4.82,4.82,0,0,1,3.21-1Z" transform="translate(-57.14 -56.88)"/><path class="cls-1" d="M173,174.87a5.32,5.32,0,0,1,2.6,2.44v-2.43h4.29v16a8.94,8.94,0,0,1-1.1,4.91c-1.25,1.89-3.65,2.83-7.22,2.84a9.81,9.81,0,0,1-5.27-1.27,4.65,4.65,0,0,1-2.26-3.78h4.79a2,2,0,0,0,.61,1.11,3.67,3.67,0,0,0,2.39.6A3.21,3.21,0,0,0,175,193.7a8,8,0,0,0,.52-3.43v-1.08a4.88,4.88,0,0,1-4.77,2.62,6.43,6.43,0,0,1-5.18-2.28,9.23,9.23,0,0,1-1.94-6.17,10.38,10.38,0,0,1,1.87-6.31,6.13,6.13,0,0,1,5.29-2.56A5.7,5.7,0,0,1,173,174.87Zm1.5,12.07a5.4,5.4,0,0,0,1.06-3.72,5.69,5.69,0,0,0-1-3.64,3.29,3.29,0,0,0-2.7-1.25,3.18,3.18,0,0,0-3.18,2.18,7.54,7.54,0,0,0-.47,2.86,6.61,6.61,0,0,0,.5,2.6,3.2,3.2,0,0,0,3.2,2.14,3.39,3.39,0,0,0,2.63-1.17Z" transform="translate(-57.14 -56.88)"/><path class="cls-1" d="M185.94,195h.56a6.42,6.42,0,0,0,1.24,0,2.11,2.11,0,0,0,1-.35,2.33,2.33,0,0,0,.72-1.1,2.68,2.68,0,0,0,.29-1L183.56,175h4.9l3.67,12.43L195.61,175h4.68l-5.77,16.56q-1.68,4.78-2.65,5.94c-.65.77-2,1.15-3.9,1.15h-1a9.6,9.6,0,0,1-1.07-.05Z" transform="translate(-57.14 -56.88)"/><path class="cls-2" d="M202.66,191.41,211.49,169h2.4l8.61,22.46h-2.19l-2.58-7H207.5l-2.65,7Zm5.55-8.86H217l-4.4-11.78Z" transform="translate(-57.14 -56.88)"/><path class="cls-2" d="M237.72,175.25h1.87v16.16h-1.87v-2.24c-.26.29-.54.59-.85.9a6.15,6.15,0,0,1-2.49,1.51,6,6,0,0,1-1.87.27,7.21,7.21,0,0,1-2.72-.46,4.43,4.43,0,0,1-1.76-1.26,4.93,4.93,0,0,1-1-1.89,8.52,8.52,0,0,1-.3-2.35V175.25h1.88v10.61a4.74,4.74,0,0,0,1,3.2,4,4,0,0,0,3.19,1.11,4.64,4.64,0,0,0,2.07-.46,4.13,4.13,0,0,0,1.54-1.27,5.78,5.78,0,0,0,1-1.92,8.24,8.24,0,0,0,.35-2.47Z" transform="translate(-57.14 -56.88)"/><path class="cls-2" d="M247.88,186.36a4.77,4.77,0,0,0,1.57,2.95,5.38,5.38,0,0,0,3.26.86,5.69,5.69,0,0,0,1.78-.26,3.6,3.6,0,0,0,1.23-.67,3,3,0,0,0,.73-1,2.55,2.55,0,0,0,.25-1.12,2.08,2.08,0,0,0-.76-1.77,5.93,5.93,0,0,0-1.92-.9,23.57,23.57,0,0,0-2.49-.56,12.71,12.71,0,0,1-2.5-.7,5,5,0,0,1-1.92-1.34,3.6,3.6,0,0,1-.76-2.47,4.24,4.24,0,0,1,1.48-3.32,6.19,6.19,0,0,1,4.19-1.29,7.14,7.14,0,0,1,4.26,1.17,5.3,5.3,0,0,1,2,3.91h-1.9a3.48,3.48,0,0,0-1.42-2.63,5.28,5.28,0,0,0-3-.77,4.22,4.22,0,0,0-2.71.77,2.46,2.46,0,0,0-.94,2,2,2,0,0,0,.77,1.67,6.21,6.21,0,0,0,1.92.93c.77.24,1.59.45,2.49.64a12.78,12.78,0,0,1,2.5.8,5.44,5.44,0,0,1,1.91,1.38,3.54,3.54,0,0,1,.77,2.44,4.09,4.09,0,0,1-.5,2,4.23,4.23,0,0,1-1.37,1.48,6.3,6.3,0,0,1-2.08.89,10.56,10.56,0,0,1-2.63.3,7.38,7.38,0,0,1-2.55-.42,5.4,5.4,0,0,1-3.1-2.92,6.37,6.37,0,0,1-.5-2.15Z" transform="translate(-57.14 -56.88)"/><path class="cls-2" d="M270.68,191.47a4.33,4.33,0,0,0-.91.22,4.82,4.82,0,0,1-1.25.16,3,3,0,0,1-2.13-.7,3.43,3.43,0,0,1-.73-2.52V176.81h-2.28v-1.56h2.28v-4.48h1.87v4.48h3v1.56h-3v12.08a1.78,1.78,0,0,0,.18.72.9.9,0,0,0,.49.41,2.63,2.63,0,0,0,.92.13,4.88,4.88,0,0,0,.76-.07,6.57,6.57,0,0,0,.77-.16Z" transform="translate(-57.14 -56.88)"/><path class="cls-2" d="M278.35,191.41h-1.87V175.25h1.87v3h.06a5.39,5.39,0,0,1,2-2.7,6.18,6.18,0,0,1,3.26-.76v2a5.5,5.5,0,0,0-2.62.5,4.36,4.36,0,0,0-1.63,1.44,5.59,5.59,0,0,0-.85,2.14,14.79,14.79,0,0,0-.23,2.57Z" transform="translate(-57.14 -56.88)"/><path class="cls-2" d="M295.55,182l1.26-.18a4.59,4.59,0,0,0,1.2-.35,1,1,0,0,0,.58-.73,5,5,0,0,0,.11-1,3.2,3.2,0,0,0-.92-2.36,4.28,4.28,0,0,0-3.1-.92,7.58,7.58,0,0,0-1.78.18,3.86,3.86,0,0,0-1.42.59,3.17,3.17,0,0,0-1,1.12,4.75,4.75,0,0,0-.51,1.76h-1.91a5.81,5.81,0,0,1,.66-2.45,5,5,0,0,1,1.45-1.65,6,6,0,0,1,2.06-.94,10.32,10.32,0,0,1,2.48-.29,9.81,9.81,0,0,1,2.29.26,5.38,5.38,0,0,1,1.87.85,3.83,3.83,0,0,1,1.25,1.54,5.68,5.68,0,0,1,.45,2.37v8.79c0,.74.13,1.19.39,1.39s.78.15,1.57-.14v1.47l-.63.19a2.92,2.92,0,0,1-.83.12,4,4,0,0,1-.84-.09,1.49,1.49,0,0,1-.75-.3,1.64,1.64,0,0,1-.45-.56,2.35,2.35,0,0,1-.24-.72,5.66,5.66,0,0,1-.06-.82,7.9,7.9,0,0,1-6,2.69,7.49,7.49,0,0,1-2-.28,4.85,4.85,0,0,1-1.74-.88,4.36,4.36,0,0,1-1.18-1.45,4.45,4.45,0,0,1-.43-2c0-2.74,1.88-4.37,5.64-4.87Zm3.15.94a9.08,9.08,0,0,1-2.4.65c-.81.11-1.62.19-2.44.25a7,7,0,0,0-3.35,1,2.77,2.77,0,0,0-1.2,2.46,2.65,2.65,0,0,0,1.08,2.2,3.12,3.12,0,0,0,1.12.53,5.57,5.57,0,0,0,1.29.18,8.5,8.5,0,0,0,2.19-.29,6,6,0,0,0,1.89-.86,4.17,4.17,0,0,0,1.82-3.57Z" transform="translate(-57.14 -56.88)"/><path class="cls-2" d="M308.4,191.41V169h1.87v22.46Z" transform="translate(-57.14 -56.88)"/><path class="cls-2" d="M317.64,171.73V169h2.06v2.78Zm.1,19.68V175.25h1.87v16.16Z" transform="translate(-57.14 -56.88)"/><path class="cls-2" d="M333.61,182a9,9,0,0,0,1.27-.18,5,5,0,0,0,1.2-.35,1,1,0,0,0,.57-.73,3.81,3.81,0,0,0,.12-1,3.2,3.2,0,0,0-.92-2.36,4.31,4.31,0,0,0-3.11-.92,7.58,7.58,0,0,0-1.78.18,3.86,3.86,0,0,0-1.42.59,3.17,3.17,0,0,0-1,1.12,4.77,4.77,0,0,0-.52,1.76h-1.9a5.67,5.67,0,0,1,.66-2.45,5,5,0,0,1,1.44-1.65,6,6,0,0,1,2.06-.94,10.32,10.32,0,0,1,2.48-.29,9.81,9.81,0,0,1,2.29.26,5.42,5.42,0,0,1,1.88.85,3.81,3.81,0,0,1,1.24,1.54,5.38,5.38,0,0,1,.45,2.37v8.79c0,.74.14,1.19.39,1.39s.79.15,1.58-.14v1.47l-.64.19a2.86,2.86,0,0,1-.82.12,4,4,0,0,1-.85-.09,1.49,1.49,0,0,1-.75-.3,2.22,2.22,0,0,1-.45-.56,2.63,2.63,0,0,1-.23-.72,5.66,5.66,0,0,1-.06-.82,8.24,8.24,0,0,1-2.72,2,7.85,7.85,0,0,1-5.3.41,5.06,5.06,0,0,1-1.73-.88,4.24,4.24,0,0,1-1.18-1.45,4.33,4.33,0,0,1-.44-2c0-2.74,1.88-4.37,5.64-4.87Zm3.16.94a9.55,9.55,0,0,1-2.41.65c-.81.11-1.62.19-2.43.25a6.85,6.85,0,0,0-3.35,1,2.87,2.87,0,0,0-.13,4.66,3.2,3.2,0,0,0,1.12.53,5.66,5.66,0,0,0,1.3.18,8.42,8.42,0,0,0,2.18-.29,5.69,5.69,0,0,0,1.89-.86,4.29,4.29,0,0,0,1.32-1.46,4.2,4.2,0,0,0,.51-2.11Z" transform="translate(-57.14 -56.88)"/><path class="cls-3" d="M206.7,87.52l-8.76-30.64H176.89l11.4,33.71c3.32-.55,6.67-1.1,10-1.68Z" transform="translate(-57.14 -56.88)"/><path class="cls-3" d="M105,107.93c4.75-1.11,10-2.25,15.45-3.52l4-.91,15.89-46.62H119.76Z" transform="translate(-57.14 -56.88)"/><path class="cls-3" d="M148.28,98l19.59-3.86V56.88H148.28Z" transform="translate(-57.14 -56.88)"/><path class="cls-3" d="M249.67,81.47l1.59-.22,8.31-24.37H239.09L231.27,84l11.07-1.51Z" transform="translate(-57.14 -56.88)"/><path class="cls-3" d="M293.65,76.89c2.27-.25,4.51-.47,6.75-.6l11.05-.78-6.6-18.63h-22.3l-7.85,22,12.08-1.26Z" transform="translate(-57.14 -56.88)"/><path class="cls-3" d="M93.74,110.76,78.33,56.88H57.14L76.83,115.1l8.38-2.1Z" transform="translate(-57.14 -56.88)"/><path class="cls-1" d="M244.93,91l-14.59,2.87-.71.14-10.11,35-8.9-31.12-9.25,2.1-8.44,1.93,16.9,50h18.74L249.65,90Z" transform="translate(-57.14 -56.88)"/><path class="cls-1" d="M313.38,79.91l-12.05,1.56c-2.09.25-4.2.57-6.31.93L305.79,116H281.47L292.4,82.82l-4.63.77-15.43,2.52-23.46,65.74h20.76l6.43-19.53h35l6.26,19.53h21.52Z" transform="translate(-57.14 -56.88)"/><path class="cls-1" d="M90.14,130l-7.45,2.39,6.57,19.43H108l10.41-30.52c-4.76,1.37-9.22,2.63-13.3,3.91Z" transform="translate(-57.14 -56.88)"/><path class="cls-1" d="M148.91,151.85h19.71V107.66l-19.71,5.11Z" transform="translate(-57.14 -56.88)"/></svg>